<svg viewBox="-59 0 512 512" xmlns="http://www.w3.org/2000/svg"><path d="m121.859375 166c0 41.351562 33.648437 75 75 75 41.355469 0 75-33.648438 75-75s-33.644531-75-75-75c-41.351563 0-75 33.648438-75 75zm75-21.210938 21.210937 21.210938-21.210937 21.210938-21.210937-21.210938zm0 0"/><path d="m368.816406 393.085938-91.824218-160.054688c-13.019532 15.539062-30.285157 27.109375-50.171876 33.085938l140.914063 245.882812 25.984375-15-25.296875-44.617188c10.328125-18.257812 11.140625-40.710937.394531-59.296874zm0 0"/><path d="m226.859375 65.894531v-65.894531h-60v65.894531c9.570313-2.878906 19.507813-4.894531 30-4.894531 10.496094 0 20.429687 2.015625 30 4.894531zm0 0"/><path d="m25.984375 512 140.914063-245.882812c-19.882813-5.976563-37.148438-17.546876-50.167969-33.082032l-91.828125 160.050782c-8 13.886718-10.136719 30.042968-5.992188 45.539062 1.371094 5.105469 3.527344 9.804688 6.09375 14.269531l-25.003906 44.105469zm0 0"/></svg>