<svg id="Layer_1" data-name="Layer 1" xmlns="http://www.w3.org/2000/svg" viewBox="0 0 393.71875 512">
  <defs>
    <style>
      .cls-1 {
        fill: #b3bdf4;
      }
    </style>
  </defs>
  <title>compass</title>
  <path class="cls-1" d="M121.85938,166a75,75,0,1,0,75-75A75,75,0,0,0,121.85938,166Zm75-21.21094L218.07031,166l-21.21093,21.21094L175.64844,166Z"/>
  <path class="cls-1" d="M368.81641,393.08594,276.99219,233.03125a104.54978,104.54978,0,0,1-50.17188,33.08594L367.73438,512l25.98437-15-25.29687-44.61719C378.75,434.125,379.5625,411.67188,368.81641,393.08594Z"/>
  <path class="cls-1" d="M226.85938,65.89453V0h-60V65.89453a103.561,103.561,0,0,1,30-4.89453A103.5398,103.5398,0,0,1,226.85938,65.89453Z"/>
  <path class="cls-1" d="M25.98438,512,166.89844,266.11719a104.57766,104.57766,0,0,1-50.168-33.082L24.90234,393.08594a58.7103,58.7103,0,0,0,.10157,59.80859L0,497Z"/>
</svg>
