<?xml version="1.0" encoding="iso-8859-1"?>
<!-- Generator: Adobe Illustrator 19.0.0, SVG Export Plug-In . SVG Version: 6.00 Build 0)  -->
<svg xmlns="http://www.w3.org/2000/svg" xmlns:xlink="http://www.w3.org/1999/xlink" version="1.1" id="Layer_1" x="0px" y="0px" viewBox="0 0 511.917 511.917" style="enable-background:new 0 0 511.917 511.917;" xml:space="preserve" width="512" height="512">
<g>
	<path d="M0,511.893h372.833V0.024H0V511.893z M297.047,396.31H181.554v-30h115.493V396.31z M75.786,85.129h115.493v30H75.786   V85.129z M75.786,158.076h221.261v30H75.786V158.076z M75.786,231.025h221.261v30H75.786V231.025z"/>
	<polygon points="511.917,68.358 481.915,68.358 481.915,33.355 451.915,33.355 451.915,68.358 421.913,68.358 421.913,138.363    511.917,138.363  "/>
	<polygon points="421.913,417.874 466.915,485.874 511.917,417.874 511.917,168.363 421.913,168.363  "/>
</g>















</svg>
