<svg viewBox="0 0 512 512" xmlns="http://www.w3.org/2000/svg"><path d="m271 271h60v121h-60zm0 0"/><path d="m451 392v-190.171875l35.335938 34.71875 21.328124-21.09375-204.40625-215.453125-208.804687 215.335938 21.09375 21.328124 35.453125-34.078124v189.414062h90v-151h120v151zm-150-181c-16.539062 0-30-13.460938-30-30s13.460938-30 30-30 30 13.460938 30 30-13.460938 30-30 30zm0 0"/><path d="m450.183594 443.210938 7.164062 8.789062h-311.695312l7.164062-8.789062-21.210937-21.210938-40.605469 45 40.605469 45 21.210937-21.210938-7.164062-8.789062h311.695312l-7.164062 8.789062 21.210937 21.210938 40.605469-45-40.605469-45zm0 0"/><path d="m21.210938 360.183594-21.210938 21.210937 45 40.605469 45-40.605469-21.210938-21.210937-8.789062 7.164062v-281.695312l8.789062 7.164062 21.210938-21.210937-45-40.605469-45 40.605469 21.210938 21.210937 8.789062-7.164062v281.695312zm0 0"/></svg>