<svg id="Layer_1" data-name="Layer 1" xmlns="http://www.w3.org/2000/svg" viewBox="0 0 46.40312 48.46205">
  <defs>
    <style>
     
    </style>
  </defs>
  <title>logo-magnigla</title>
  <path id="Path_166" data-name="Path 166" class="cls-1" d="M25.652,9.9V43.3h2.6V18.9l3-1.4V43.3h1.8V12.1Z" transform="translate(0)"/>
  <path id="Path_164" data-name="Path 164" class="cls-1" d="M25.052,10.2l-.7.4V43.3h.7Z" transform="translate(0)"/>
  <path id="Path_165" data-name="Path 165" class="cls-1" d="M21.852,43.3h.6V11.5l-.6.3Z" transform="translate(0)"/>
  <path id="Path_163" data-name="Path 163" class="cls-1" d="M23.752,10.8l-.7.4V43.3h.7Z" transform="translate(0)"/>
  <path id="Path_169" data-name="Path 169" class="cls-1" d="M30.752,17.7l-.5.3V43.3h.5Z" transform="translate(0)"/>
  <path id="Path_170" data-name="Path 170" class="cls-1" d="M28.252,43.3h.6V18.7l-.6.2Z" transform="translate(0)"/>
  <path id="Path_168" data-name="Path 168" class="cls-1" d="M29.752,18.2l-.5.2V43.3h.5Z" transform="translate(0)"/>
  <path id="Path_167" data-name="Path 167" class="cls-1" d="M31.252,43.3h5.8V19.1l-5.8-1.6Z" transform="translate(0)"/>
  <path id="Path_171" data-name="Path 171" class="cls-1" d="M10.352,24.6l-.3.2V43.3h.3Z" transform="translate(0)"/>
  <path id="Path_172" data-name="Path 172" class="cls-1" d="M11.152,24.2l-.4.2V43.3h.4Z" transform="translate(0)"/>
  <path id="Path_173" data-name="Path 173" class="cls-1" d="M9.252,43.3h.4V24.9l-.4.2Z" transform="translate(0)"/>
  <path id="Path_174" data-name="Path 174" class="cls-1" d="M11.452,24V43.3h2.7V24.8Z" transform="translate(0)"/>
  <path id="Path_175" data-name="Path 175" class="cls-1" d="M28.252,43.3V18.9l.6-.3V2.8L19.152,0V43.3h2.7V11.8l3.8-1.9V43.3Z" transform="translate(0)"/>
  <path id="Path_177" data-name="Path 177" class="cls-1" d="M18.352.4l-.9.4V43.3h.9Z" transform="translate(0)"/>
  <path id="Path_178" data-name="Path 178" class="cls-1" d="M14.152,43.3h.9V2l-.9.4Z" transform="translate(0)"/>
  <path id="Path_176" data-name="Path 176" class="cls-1" d="M16.652,1.2l-.9.4V43.3h.9Z" transform="translate(0)"/>
  <path id="Path_179" data-name="Path 179" class="cls-1" d="M40.452,40.7a23.1,23.1,0,0,0-11.6-37.9V9.2A17.1,17.1,0,1,1,7.03816,19.63914L7.052,19.6a16.70011,16.70011,0,0,1,2.3-4.4,15.49994,15.49994,0,0,1,4.8-4.4V3.9a22.3,22.3,0,0,0-7.3,4.9,23.2,23.2,0,0,0,28.7,36.1l1.8,1.7a6.3,6.3,0,0,0,8.90728-.20088q.04689-.04907.09272-.09912h0Z" transform="translate(0)"/>
</svg>
